<?xml version="1.0" encoding="UTF-8"?>
<svg version="1.1" xmlns="http://www.w3.org/2000/svg" width="1024" height="1024">
<path d="M0 0 C337.92 0 675.84 0 1024 0 C1024 337.92 1024 675.84 1024 1024 C686.08 1024 348.16 1024 0 1024 C0 686.08 0 348.16 0 0 Z " fill="#FEFEFE" transform="translate(0,0)"/>
<path d="M0 0 C1.47486099 2.77606159 2.25482385 5.73975192 3.125 8.75 C10.57781265 32.01588301 23.9873205 51.80719043 40 70 C40.64839844 70.77085937 41.29679687 71.54171875 41.96484375 72.3359375 C45.94935844 77.05230183 50.28201078 81.03027284 55 85 C55.94746094 85.8353125 56.89492188 86.670625 57.87109375 87.53125 C69.93314191 98.10508669 83.14051552 106.43796664 97.23730469 114.03662109 C98.81254355 114.89754804 100.36510698 115.79966723 101.9140625 116.70703125 C102.74679687 117.17496094 103.57953125 117.64289063 104.4375 118.125 C105.11683594 118.51945312 105.79617188 118.91390625 106.49609375 119.3203125 C114.76917669 121.56604796 121.9542898 117.48966377 129.0625 113.625 C130.57432861 112.81687866 130.57432861 112.81687866 132.11669922 111.99243164 C176.85694344 87.65633159 208.40408111 47.71326681 225 0 C231.73325574 0.64716364 238.25791807 1.73134798 244.875 3.125 C246.41474487 3.44887695 246.41474487 3.44887695 247.9855957 3.77929688 C256.09474693 5.52180955 264.15028137 7.45226525 272.1875 9.5 C273.81437744 9.90822998 273.81437744 9.90822998 275.47412109 10.32470703 C304.00570746 17.75312648 319.78868879 34.12234348 337.73046875 56.234375 C340.24099976 59.29367957 342.80519944 62.30306309 345.375 65.3125 C349.67939947 70.36222401 353.80347775 75.52996382 357.87451172 80.76879883 C361.42578785 85.31914714 365.12253628 89.72467673 368.87719727 94.10766602 C372.17112556 97.97170852 375.32602892 101.92557453 378.4375 105.9375 C382.16578991 110.74166785 386.01363343 115.40784946 390 120 C394.50890558 125.19586602 398.82925931 130.50418426 403.04663086 135.93896484 C406.67326546 140.61058442 410.41727335 145.16738854 414.22265625 149.6953125 C417.68299944 154.18235093 418.59358912 157.26197183 418 163 C415.24807965 167.86370575 411.93774486 171.08243374 407.6875 174.5625 C406.4305013 175.61530271 405.1740079 176.66870894 403.91796875 177.72265625 C403.27134277 178.26164551 402.6247168 178.80063477 401.95849609 179.35595703 C398.77146829 182.03128055 395.63759133 184.76704779 392.5 187.5 C387.10989448 192.18060654 381.6993388 196.8364636 376.27392578 201.47607422 C372.59873277 204.62165878 368.93990233 207.78530912 365.28979492 210.95996094 C342.73051445 230.57672657 342.73051445 230.57672657 334.6484375 230.4609375 C329.81962051 229.62052392 327.25667214 226.4536731 324 223 C323.18402344 222.20464844 322.36804688 221.40929687 321.52734375 220.58984375 C317.61065052 216.76767102 313.86623224 212.9024273 310.375 208.6875 C306.6476815 204.38406201 302.59936724 200.75320092 296.890625 199.55859375 C293.49114608 199.36050381 291.24185752 199.860687 288.30167103 201.5542717 C285.24229115 204.80513242 285.2984803 207.44811235 285.36076355 211.69415283 C285.35240787 212.47344548 285.3440522 213.25273813 285.33544332 214.0556457 C285.31347941 216.66938659 285.32713005 219.28172697 285.34057617 221.89550781 C285.33212519 223.76800607 285.32148212 225.64049554 285.30880737 227.51296997 C285.28060577 232.59946981 285.28314243 237.68554876 285.29110122 242.77210331 C285.2942213 248.08663753 285.26920653 253.40103653 285.24714661 258.71551514 C285.20965729 268.7806239 285.19755572 278.84559754 285.1945222 288.91076922 C285.18896084 302.51082063 285.14428984 316.11073951 285.10178089 329.71071625 C285.03583205 351.14051032 285.02223028 372.57001275 285 394 C331.2 394 377.4 394 425 394 C423.515 384.1 423.515 384.1 422 374 C420.92803489 366.79304438 419.86721604 359.5844991 418.8125 352.375 C418.66515411 351.36798035 418.51780823 350.36096069 418.36599731 349.32342529 C415.44381355 329.31548131 412.66530422 309.28857424 409.93115234 289.25415039 C408.3802041 277.90496967 406.805973 266.56120086 405.125 255.23046875 C404.97986465 254.24550415 404.83472931 253.26053955 404.68519592 252.24572754 C404.01453884 247.69466048 403.33547481 243.14524477 402.63842773 238.59814453 C402.40303442 237.00950652 402.16806274 235.42080595 401.93359375 233.83203125 C401.82261353 233.13377731 401.7116333 232.43552338 401.59729004 231.71611023 C400.87645977 226.72690545 400.60490045 221.64532338 403.015625 217.07421875 C405.79450784 213.95237253 407.87655904 211.8434311 412 211 C418.02497289 210.9217536 422.321167 211.98957172 427 216 C429.69969145 219.7907731 430.56283064 222.96891246 431.20214844 227.55249023 C431.29449516 228.19287043 431.38684189 228.83325062 431.481987 229.49303627 C431.78538455 231.61767258 432.07248634 233.74417033 432.359375 235.87109375 C432.57261559 237.39126842 432.78672596 238.91132129 433.00164795 240.43125916 C433.56912881 244.46989678 434.12149779 248.51044347 434.66848755 252.55190277 C434.99254595 254.94495459 435.31902261 257.33766395 435.64624023 259.73028564 C437.090847 270.30622218 438.5018991 280.88651749 439.9055748 291.46795273 C440.97563579 299.52869807 442.05174477 307.58863837 443.12890625 315.6484375 C443.24858072 316.5443202 443.3682552 317.4402029 443.49155617 318.36323357 C445.19341986 331.0940838 446.93466461 343.81893385 448.71484375 356.5390625 C448.92858127 358.06853703 449.14231624 359.59801192 449.35604858 361.12748718 C450.25587737 367.56113019 451.15907654 373.99425586 452.0733633 380.42586136 C452.52495311 383.61025385 452.97084417 386.79544669 453.41796875 389.98046875 C453.57990219 391.10574982 453.74183563 392.23103088 453.90867615 393.39041138 C456.02022051 408.51407216 456.02022051 408.51407216 452 416 C448.41376639 420.13796186 445.58129989 422.78537048 440.04026413 423.24609566 C438.29807539 423.24333028 438.29807539 423.24333028 436.52069092 423.24050903 C435.54776246 423.24307231 435.54776246 423.24307231 434.55517888 423.24568737 C432.38400389 423.24897894 430.21313866 423.23798429 428.04199219 423.22705078 C426.4847718 423.22648659 424.92755089 423.22680337 423.37033081 423.22793579 C419.1433832 423.22851001 414.91654891 423.21674444 410.68962765 423.20278788 C406.2720338 423.19029213 401.85443741 423.18911093 397.43682861 423.18673706 C389.07168527 423.1805189 380.70659415 423.16410352 372.34147382 423.14403808 C362.81799038 423.12168956 353.29450447 423.11068828 343.77100134 423.10064721 C324.1806384 423.07973759 304.59032249 423.04455506 285 423 C285.01554428 424.07661896 285.03108856 425.15323792 285.04710388 426.26248169 C285.18907971 436.41456612 285.29397408 446.56644885 285.3626852 456.71930122 C285.39919867 461.93893979 285.44871453 467.15777623 285.52807617 472.37695312 C285.60420334 477.41501608 285.64600448 482.45230818 285.6641407 487.49090195 C285.67706281 489.41191621 285.70229789 491.33288882 285.7401104 493.25357437 C285.79103009 495.94747895 285.79791998 498.6382102 285.79467773 501.33251953 C285.81984467 502.12446213 285.8450116 502.91640472 285.87094116 503.73234558 C285.82729771 507.08987648 285.68206995 509.17116588 283.50465584 511.81710434 C265.61128609 527.63300507 225.83095784 527.85176244 202.64135742 530.56298828 C200.19408628 530.85669363 197.74885297 531.16785596 195.3059082 531.49560547 C183.92075503 533.01227645 172.52280349 533.89095221 161.0625 534.625 C160.04709137 534.6907019 159.03168274 534.75640381 157.98550415 534.82409668 C137.66655088 536.11149783 117.42611106 536.41281823 97.07409668 536.03710938 C95.20085562 536.00359367 93.32747875 535.97789011 91.45410156 535.953125 C46.20287795 535.28294335 -1.17201983 530.69353021 -45 519 C-45.81210937 518.79165527 -46.62421875 518.58331055 -47.4609375 518.36865234 C-52.95329428 516.78405193 -57.3530853 514.5079253 -61 510 C-61.94664691 507.08620413 -61.89137612 504.37538428 -61.79467773 501.33251953 C-61.79569992 500.48308273 -61.79672211 499.63364594 -61.79777527 498.75846863 C-61.79291836 495.96528648 -61.73857177 493.1754196 -61.68359375 490.3828125 C-61.67053069 488.44084458 -61.66056986 486.49885352 -61.65357971 484.55685425 C-61.62690978 479.45662236 -61.55819643 474.35779595 -61.48065186 469.25811768 C-61.4089197 464.04987602 -61.3770469 458.84140623 -61.34179688 453.6328125 C-61.26682457 443.421259 -61.14742329 433.21074657 -61 423 C-61.81906641 423.00368717 -62.63813282 423.00737434 -63.48201942 423.01117325 C-83.4124245 423.09951361 -103.34279583 423.16570444 -123.27335548 423.20724869 C-132.91163794 423.22787323 -142.54978971 423.25599179 -152.18798828 423.30175781 C-160.58872514 423.34162886 -168.98936735 423.3674336 -177.3901962 423.37635398 C-181.83834066 423.38156828 -186.28621434 423.39382148 -190.734272 423.42292023 C-194.92198974 423.4500936 -199.10932543 423.45844116 -203.29712296 423.45243073 C-204.83300351 423.45353011 -206.36889699 423.46147277 -207.90470123 423.4768219 C-210.00501886 423.49678119 -212.103902 423.49191925 -214.20425415 423.48101807 C-215.37861841 423.48470524 -216.55298267 423.48839241 -217.76293373 423.49219131 C-222.85922338 422.71730773 -225.93521303 420.1488491 -229.375 416.4375 C-233.39503688 407.93357583 -230.50413702 396.9626015 -229.19921875 387.98828125 C-229.00442732 386.60882186 -228.81035208 385.22926117 -228.6169281 383.84960938 C-228.20034617 380.88809563 -227.77917658 377.9272858 -227.35430908 374.96694946 C-226.67570283 370.23773921 -226.00751919 365.50709343 -225.34130859 360.77612305 C-225.11031177 359.13648688 -224.87929349 357.49685373 -224.64825439 355.85722351 C-224.47423473 354.62223397 -224.47423473 354.62223397 -224.29669952 353.36229515 C-223.93806393 350.8200575 -223.57839705 348.27796768 -223.21844482 345.73591614 C-220.58472381 327.12726343 -218.03036867 308.50781514 -215.47812271 289.88784409 C-215.01689636 286.52409396 -214.55507263 283.16042608 -214.09307003 279.79678249 C-213.86980664 278.17122788 -213.64662886 276.54566151 -213.42353916 274.92008305 C-212.88737193 271.01406311 -212.3498476 267.10824024 -211.80921936 263.20283508 C-210.90357843 256.65141422 -210.00551985 250.09981963 -209.16614723 243.53952885 C-208.90344389 241.48955824 -208.63656252 239.44017491 -208.36837769 237.39091492 C-208.04494151 234.90769588 -207.72981303 232.42337395 -207.42483521 229.93782043 C-206.53718769 223.19499056 -205.61907235 217.85016696 -200.875 212.6875 C-196.95819646 210.38850662 -193.5205586 209.80797627 -189 210 C-183.71505194 211.72777148 -181.22337572 214.67146689 -178 219 C-174.04002749 226.91994501 -178.95627336 242.86296917 -180.1875 251.65234375 C-180.40861251 253.25492933 -180.62935126 254.85756651 -180.8497467 256.46025085 C-181.43899144 260.73595411 -182.03407138 265.01082548 -182.63051224 269.28553009 C-183.12663046 272.84638038 -183.61932882 276.40770064 -184.1120882 279.96901703 C-188.22290655 309.67242938 -192.42144607 339.36366583 -196.71084595 369.04182434 C-197.36979587 373.60151117 -198.02645427 378.16116292 -198.65185547 382.72558594 C-198.8273291 383.99950195 -199.00280273 385.27341797 -199.18359375 386.5859375 C-199.3220874 387.61509277 -199.46058105 388.64424805 -199.60327148 389.70458984 C-200 392 -200 392 -201 394 C-154.8 394 -108.6 394 -61 394 C-61.03223707 360.53017866 -61.03223707 360.53017866 -61.11132812 327.06054688 C-61.15398632 313.41591707 -61.1914183 299.77141211 -61.19555664 286.12670898 C-61.19859387 276.19026334 -61.21905189 266.25403333 -61.26052457 256.317671 C-61.2818781 251.0552529 -61.29444305 245.79314155 -61.28615379 240.5306797 C-61.27862862 235.57867807 -61.29437402 230.62729875 -61.32806015 225.67541122 C-61.33631193 223.85695289 -61.33602163 222.03843288 -61.32659721 220.21998024 C-61.31500657 217.73806469 -61.33404312 215.25819939 -61.36076355 212.77644348 C-61.35009029 212.05561846 -61.33941703 211.33479344 -61.32842034 210.59212524 C-61.40565842 206.75099753 -61.92158383 205.09948514 -64.32901478 202.04522228 C-66.89685434 199.73645875 -66.89685434 199.73645875 -70.375 199.5 C-82.30153225 201.14503893 -88.79898228 210.33028574 -96.26953125 219.04296875 C-105.65339962 229.65542485 -105.65339962 229.65542485 -110.1015625 230.30859375 C-115.92624118 230.60613926 -119.19688585 229.94230083 -123.62890625 226.15234375 C-124.80259766 225.08693359 -124.80259766 225.08693359 -126 224 C-127.11080297 223.04009339 -128.2243303 222.08333472 -129.33984375 221.12890625 C-131.928069 218.90862667 -134.50376096 216.67498533 -137.0703125 214.4296875 C-140.69307266 211.26221777 -144.34142187 208.12596739 -148 205 C-153.48059022 200.31185886 -158.93555588 195.59495141 -164.38134766 190.86645508 C-168.69704413 187.12180509 -173.03177083 183.40015577 -177.375 179.6875 C-181.3691551 176.26712483 -185.35847852 172.84179608 -189.3125 169.375 C-190.00988281 168.76398438 -190.70726562 168.15296875 -191.42578125 167.5234375 C-193.88173084 165.14671209 -194.00862855 163.92973898 -194.4375 160.4375 C-194.25263697 151.84136911 -186.68422405 145.31178553 -181.3815918 139.1496582 C-177.97134441 135.18466656 -174.70507817 131.13212423 -171.5 127 C-167.49906063 121.85004374 -163.36510898 116.84457412 -159.12280273 111.89233398 C-155.82887274 108.02828949 -152.67400783 104.07439937 -149.5625 100.0625 C-145.28997076 94.55796744 -140.83664895 89.2432477 -136.27636719 83.97558594 C-132.71785271 79.85923771 -129.2790482 75.66592901 -125.90234375 71.3984375 C-122.77136695 67.45096367 -119.56848287 63.56301164 -116.36914062 59.67089844 C-114.80867818 57.76651096 -113.25604843 55.85585201 -111.703125 53.9453125 C-83.38684275 19.1931561 -55.93572902 8.24002044 -12.4375 0.125 C-11.41136597 -0.07355591 -11.41136597 -0.07355591 -10.36450195 -0.27612305 C-3.10969448 -1.55757026 -3.10969448 -1.55757026 0 0 Z " fill="#000000" transform="translate(400,375)"/>
<path d="M0 0 C3.39679612 2.93442899 6.72470494 5.93074302 10 9 C10.9075 8.195625 11.815 7.39125 12.75 6.5625 C14.1604069 5.36757193 15.57791818 4.18100973 17 3 C17.8146875 2.32324219 18.629375 1.64648438 19.46875 0.94921875 C44.40530669 -18.76887313 73.43344248 -25.99551089 104.77734375 -23.7265625 C130.12518998 -20.64881714 153.60422395 -8.34430849 169.9453125 11.34375 C179.70344261 24.04845274 186.66064881 38.3267552 190 54 C190.18691406 54.8252417 190.37382813 55.6504834 190.56640625 56.50073242 C192.85262899 68.46013265 192.21540065 80.69284295 192.125 92.8125 C192.11495133 95.16210557 192.10582882 97.51171528 192.09765625 99.86132812 C192.07578961 105.57431049 192.04246123 111.28713551 192 117 C192.94467636 116.99333817 193.88935272 116.98667633 194.86265564 116.97981262 C203.79251428 116.91883257 212.72233033 116.87394655 221.65235043 116.84456348 C226.24268756 116.8289492 230.83285577 116.80778888 235.4230957 116.77368164 C239.85811065 116.74093635 244.29296372 116.72311516 248.72809029 116.71536827 C250.41486723 116.70985187 252.10163594 116.69908002 253.78834343 116.68280983 C272.99069859 116.50505298 272.99069859 116.50505298 280.32666016 121.62329102 C285.31545582 127.33715772 286.43438978 132.52511647 287.375 139.9375 C287.66753883 141.92385618 287.96021888 143.91019275 288.25546265 145.89614868 C288.5934139 148.1937889 288.91897225 150.49299852 289.24414062 152.79248047 C290.07599037 158.60184461 290.99630879 164.39634236 291.921875 170.19140625 C292.09689041 171.28805603 292.27190582 172.38470581 292.45222473 173.5145874 C292.82023861 175.81994099 293.18834906 178.12527916 293.55654907 180.43060303 C294.5344326 186.57089468 295.49969524 192.71316453 296.46484375 198.85546875 C296.66687912 200.14076477 296.86891449 201.42606079 297.07707214 202.75030518 C298.42068138 211.30076069 299.76019095 219.85185624 301.09863281 228.40312195 C301.93636311 233.75519415 302.7749884 239.10712603 303.61383438 244.45902348 C304.20882079 248.25552838 304.8032423 252.05212004 305.39642334 255.84890747 C308.6241529 276.53952695 308.6241529 276.53952695 312.06640625 297.1953125 C312.21563034 298.06542465 312.36485443 298.9355368 312.51860046 299.83201599 C313.16803249 303.60696497 313.82895902 307.37912928 314.5144043 311.14770508 C314.73136963 312.38673584 314.94833496 313.6257666 315.171875 314.90234375 C315.3584668 315.92835693 315.54505859 316.95437012 315.73730469 318.01147461 C316.09992497 322.13678582 315.962782 326.23549618 313.94921875 329.92578125 C310.76531834 333.42511452 308.37163628 335.66343116 303.6328125 336.3359375 C297.88397057 336.42548332 294.49682363 335.9484305 290 332 C287.33860376 328.97244939 286.49047917 326.64319565 285.8684082 322.6796875 C285.60669327 321.06686638 285.60669327 321.06686638 285.33969116 319.42146301 C285.16185089 318.25113022 284.98401062 317.08079742 284.80078125 315.875 C284.6048941 314.64645798 284.40900696 313.41791595 284.20718384 312.15214539 C283.67548032 308.80217227 283.15412004 305.45089963 282.6374321 302.09859848 C282.0907948 298.56810026 281.53098781 295.03968913 280.97290039 291.51098633 C279.73525883 283.66786934 278.51733361 275.82176664 277.30516052 267.97467804 C276.83747541 264.94831177 276.36832545 261.92217257 275.89941406 258.89599609 C274.58665064 250.41448125 273.27892039 241.93221912 271.98535156 233.44775391 C270.20492156 221.775895 268.39247994 210.10972726 266.5390625 198.44921875 C266.33219315 197.14645493 266.12532379 195.8436911 265.91218567 194.50144958 C264.90562886 188.16658476 263.89551761 181.83231227 262.88061523 175.4987793 C262.51537138 173.20492983 262.15021398 170.91106659 261.78515625 168.6171875 C261.61887726 167.58724167 261.45259827 166.55729584 261.28128052 165.49613953 C261.12666351 164.52143204 260.97204651 163.54672455 260.81274414 162.54248047 C260.67921036 161.70893036 260.54567657 160.87538025 260.40809631 160.01657104 C259.82301999 155.69179709 259.43425119 151.34251195 259 147 C236.89 147 214.78 147 192 147 C192.0309375 155.724375 192.0309375 155.724375 192.0625 164.625 C192.050979 166.4498291 192.03945801 168.2746582 192.02758789 170.15478516 C191.84024005 178.10032048 191.84024005 178.10032048 194.51953125 185.32470703 C196.27614299 186.77455753 198.02966156 187.86966721 200 189 C201.7421875 191.4140625 201.7421875 191.4140625 202.875 193.625 C203.26429688 194.35976563 203.65359375 195.09453125 204.0546875 195.8515625 C207.25726464 203.13014691 207.12452554 211.83197223 204.4375 219.25 C200.93915674 226.84396463 195.7721315 232.6975427 188.06640625 236.14453125 C179.48701502 238.53801747 169.94329705 238.54656944 161.875 234.5625 C154.73015579 229.93681059 149.72481552 223.54683588 147.4375 215.3125 C145.89226099 207.14480807 146.93163858 200.28272278 151 193 C154.24812271 188.49332395 156.99306652 185.50346674 162 183 C162 171.12 162 159.24 162 147 C62.34 147 -37.32 147 -140 147 C-139.67 158.88 -139.34 170.76 -139 183 C-136.36 185.31 -133.72 187.62 -131 190 C-126.39340532 196.22036989 -124.61651184 203.31928005 -125 211 C-126.59670331 219.9960601 -130.688436 226.53912107 -137.6640625 232.38671875 C-144.18050541 236.88720524 -152.11113157 239.34220331 -160 238 C-168.65021478 235.59415901 -176.31015678 231.41860558 -180.875 223.5 C-185.13321978 214.8975358 -186.43483912 207.84841825 -183.5625 198.5625 C-181.08224301 192.2141166 -176.24846965 185.12423483 -170 182 C-169.67 170.45 -169.34 158.9 -169 147 C-191.44 147 -213.88 147 -237 147 C-237.763125 152.506875 -238.52625 158.01375 -239.3125 163.6875 C-242.43797767 185.8388468 -245.97449752 207.9213668 -249.52318382 230.00775528 C-250.11999027 233.72255912 -250.71641573 237.43742396 -251.3125 241.15234375 C-251.42906574 241.87865494 -251.54563148 242.60496613 -251.66572952 243.35328674 C-253.6739551 255.87524365 -255.61483799 268.40655958 -257.50497437 280.94692993 C-257.92901084 283.75625762 -258.35613118 286.5650976 -258.78442383 289.3737793 C-260.2204111 298.75754398 -260.2204111 298.75754398 -261.59521484 308.15039062 C-262.08979192 311.62357929 -262.60515873 315.09302488 -263.125 318.5625 C-263.24738037 319.49102783 -263.36976074 320.41955566 -263.49584961 321.3762207 C-264.51731001 327.9825239 -267.05168485 330.6891584 -272.3125 334.8125 C-275.9234924 336.40805478 -279.1556439 336.67974862 -283 336 C-287.30742759 333.76345106 -290.64038378 331.26546009 -293 327 C-294.12143533 318.14340122 -292.08089903 309.1129704 -290.58166504 300.40594482 C-289.93667466 296.65470769 -289.31375426 292.89987917 -288.68896484 289.14523315 C-288.34452989 287.07616732 -287.99912569 285.00726264 -287.65283203 282.93850708 C-285.44943077 269.76176447 -283.34665953 256.56908033 -281.25 243.375 C-281.04360901 242.07894836 -280.83721802 240.78289673 -280.62457275 239.4475708 C-278.00547534 222.99145826 -275.45918236 206.52531651 -272.984375 190.046875 C-272.85912697 189.21324558 -272.73387894 188.37961617 -272.60483551 187.52072525 C-271.372224 179.31308914 -270.14423731 171.10478615 -268.92728043 162.89481354 C-268.47642298 159.85636048 -268.02319254 156.818264 -267.56958771 153.78022003 C-267.35992917 152.37146019 -267.15144869 150.96252441 -266.94426727 149.55339813 C-263.76183701 127.90872023 -263.76183701 127.90872023 -259.8125 123.625 C-259.26207031 122.99851563 -258.71164062 122.37203125 -258.14453125 121.7265625 C-252.84108699 117.45675856 -247.60501585 116.55887814 -240.95336914 116.65942383 C-240.18181488 116.65898575 -239.41026062 116.65854767 -238.61532593 116.65809631 C-236.08833698 116.66017106 -233.56202797 116.68343896 -231.03515625 116.70703125 C-229.27396507 116.7126319 -227.51276919 116.71689978 -225.75157166 116.71989441 C-221.13356446 116.73130628 -216.51584381 116.76074168 -211.89794922 116.79400635 C-207.17875036 116.82478638 -202.45950485 116.83841665 -197.74023438 116.85351562 C-188.49336423 116.88561512 -179.24670601 116.9367669 -170 117 C-170.00999275 116.11701988 -170.00999275 116.11701988 -170.02018738 115.21620178 C-170.08737699 109.00136874 -170.13214111 102.78664141 -170.16479492 96.5715332 C-170.17973498 94.26257119 -170.20009442 91.95363681 -170.22631836 89.64477539 C-170.55736228 59.71451009 -165.91109821 31.76691675 -145 9 C-144.55672363 8.50902832 -144.11344727 8.01805664 -143.65673828 7.51220703 C-106.56422283 -33.19531166 -41.91347778 -33.99930146 0 0 Z " fill="#010101" transform="translate(501,122)"/>
<path d="M0 0 C0.88342575 -0.00807175 1.7668515 -0.01614349 2.67704773 -0.02445984 C4.54713002 -0.03825363 6.41723699 -0.0489967 8.28735352 -0.05688477 C10.1673134 -0.06832142 12.047243 -0.08863864 13.92700195 -0.1184082 C33.97993198 -0.43519176 53.74867878 1.74715795 69.05078125 16.2421875 C83.5029216 32.50880362 83.77028791 52.62143361 82.82421875 73.23828125 C81.94378557 82.91319796 79.37760786 91.19082426 72.01171875 97.73828125 C71.28984375 98.23328125 70.56796875 98.72828125 69.82421875 99.23828125 C70.71109375 100.14578125 71.59796875 101.05328125 72.51171875 101.98828125 C84.95543305 116.57949234 83.91983882 138.274035 82.82421875 156.23828125 C81.37547004 168.83577637 75.4244407 180.78461774 66.1171875 189.42578125 C53.70211074 199.23940241 40.75298805 202.36472581 25.2265625 202.44140625 C24.31524063 202.44710632 23.40391876 202.4528064 22.46498108 202.4586792 C20.54120021 202.4680889 18.61740351 202.47464707 16.69360352 202.47851562 C13.7947871 202.4881711 10.89669584 202.51921254 7.99804688 202.55078125 C-11.07652865 202.66080678 -27.65014639 200.32597274 -41.9921875 186.51171875 C-54.74839997 173.23065317 -57.54385048 156.6315717 -57.48828125 138.73828125 C-57.50439453 137.70058594 -57.52050781 136.66289063 -57.53710938 135.59375 C-57.54362799 125.12485431 -56.02115486 114.54054196 -49.17578125 106.23828125 C-46.36328125 103.73828125 -46.36328125 103.73828125 -44.17578125 102.23828125 C-44.6346875 101.70460938 -45.09359375 101.1709375 -45.56640625 100.62109375 C-58.52828218 84.88167298 -58.36148508 65.77965069 -57.17578125 46.23828125 C-55.6112557 32.61023125 -48.84298031 19.88840994 -38.17578125 11.23828125 C-26.93085144 2.9301716 -13.73830436 0.12162487 0 0 Z " fill="#FDFDFD" transform="translate(499.17578125,544.76171875)"/>
<path d="M0 0 C17.91279219 -0.6691368 35.40753849 4.21551865 48.88671875 16.5078125 C61.02223604 28.13100721 67.68894637 40.11940457 72.51171875 56.1953125 C72.51171875 74.3453125 72.51171875 92.4953125 72.51171875 111.1953125 C31.92171875 111.1953125 -8.66828125 111.1953125 -50.48828125 111.1953125 C-50.81828125 96.0153125 -51.14828125 80.8353125 -51.48828125 65.1953125 C-53.00625408 51.81274238 -53.00625408 51.81274238 -56.67578125 39.4453125 C-59.84685957 31.08454619 -59.84685957 31.08454619 -58.48828125 27.1953125 C-47.24189303 12.0596834 -25.57739383 3.8220962 -7.80078125 0.5078125 C-5.2039443 0.26452431 -2.60439617 0.14582285 0 0 Z " fill="#FEFEFE" transform="translate(590.48828125,127.8046875)"/>
<path d="M0 0 C5.94001594 4.68646775 11.02264995 9.9677395 15.83203125 15.796875 C15.50589844 16.68246094 15.17976562 17.56804687 14.84375 18.48046875 C5.76115334 44.22788878 6.51023602 68.99047931 5.83203125 96.796875 C-34.75796875 96.796875 -75.34796875 96.796875 -117.16796875 96.796875 C-117.16796875 28.88270334 -117.16796875 28.88270334 -98.16796875 7.796875 C-97.61496094 7.16265625 -97.06195313 6.5284375 -96.4921875 5.875 C-71.4234089 -21.16816927 -28.63052374 -19.91074647 0 0 Z " fill="#FEFEFE" transform="translate(478.16796875,142.203125)"/>
<path d="M0 0 C45.87 0 91.74 0 139 0 C133.12920856 16.43821604 133.12920856 16.43821604 129.375 23 C128.72942139 24.13671143 128.72942139 24.13671143 128.07080078 25.29638672 C115.94737304 46.10630079 94.39736251 70.81478407 71 79 C66.22573198 78.81668086 62.49527836 76.17851307 58.5625 73.6875 C57.86092773 73.2445459 57.15935547 72.8015918 56.43652344 72.34521484 C49.03186879 67.54837345 42.45538339 61.99304618 36 56 C35.47422363 55.51805176 34.94844727 55.03610352 34.40673828 54.53955078 C18.71264716 40.02509695 7.04531845 22.18109533 0 2 C0 1.34 0 0.68 0 0 Z " fill="#000000" transform="translate(443,368)"/>
<path d="M0 0 C2.02161706 -0.00436163 4.04102563 -0.04070444 6.06225586 -0.07861328 C13.51318724 -0.10082172 19.87110157 0.16250368 26.22436523 4.37060547 C31.53227643 9.81121445 31.47716674 15.04901208 31.47314453 22.24072266 C31.36722159 28.97406876 30.75416579 33.77243192 25.91186523 38.74560547 C18.6246221 43.1518455 11.23934216 42.77087584 2.97436523 42.80810547 C1.0659082 42.85741211 1.0659082 42.85741211 -0.88110352 42.90771484 C-8.75366583 42.95239915 -15.36542342 42.29752278 -21.77563477 37.37060547 C-26.55849812 30.72192556 -27.43769676 23.3755369 -26.77563477 15.37060547 C-25.54768929 9.79167209 -23.32255065 5.96584129 -18.77563477 2.37060547 C-12.56018156 -0.15056438 -6.62221865 -0.00159783 0 0 Z " fill="#010101" transform="translate(509.775634765625,585.62939453125)"/>
<path d="M0 0 C1.47015036 -0.01147293 2.94026061 -0.0318501 4.41015625 -0.06152344 C21.10131391 -0.39820557 21.10131391 -0.39820557 27.59619141 4.29516602 C32.48491903 9.88099454 32.12898377 16.60287195 31.91650391 23.72094727 C31.40203265 29.46169355 30.42002756 33.42203699 26.28369141 37.67016602 C19.40325461 41.83043013 12.64884101 41.66766032 4.82055664 41.66577148 C2.79893958 41.67013312 0.77953101 41.70647593 -1.24169922 41.74438477 C-8.53881133 41.76613473 -15.27473632 41.68898982 -21.40380859 37.29516602 C-26.11879331 31.62723188 -26.7664414 25.27982942 -26.68115234 18.18188477 C-26.10628405 12.19839645 -23.89411573 7.26893783 -19.34130859 3.29516602 C-13.3907606 -0.75627092 -6.92722252 0.03758958 0 0 Z " fill="#010101" transform="translate(509.40380859375,664.704833984375)"/>
</svg>
